<svg width="2118" height="475" viewBox="0 0 2118 475" fill="none" xmlns="http://www.w3.org/2000/svg">
<mask id="path-1-outside-1_15_2" maskUnits="userSpaceOnUse" x="-10" y="-10" width="2138" height="495" fill="black">
<rect fill="white" x="-10" y="-10" width="2138" height="495"/>
<path d="M224.198 474.5C176.131 474.5 135.298 464.7 101.698 445.1C68.0977 425.033 42.6643 397.5 25.3977 362.5C8.59766 327.033 0.197656 286.2 0.197656 240C0.197656 193.333 8.13099 152.033 23.9977 116.1C39.8643 80.1667 64.131 51.9333 96.7977 31.4C129.931 10.8666 170.998 0.599958 219.998 0.599958C253.598 0.599958 282.531 3.86664 306.798 10.4C331.531 16.4666 353.231 26.2666 371.898 39.8V111.2H297.698V67.8C277.631 57.5333 251.731 52.4 219.998 52.4C173.331 52.4 137.164 68.9667 111.498 102.1C85.831 135.233 72.9977 181.2 72.9977 240C72.9977 297.4 86.531 342.2 113.598 374.4C140.664 406.6 178.464 422.7 226.998 422.7C259.664 422.7 288.364 417.8 313.098 408V277.1H215.798V225.3H386.598V430.4C363.731 445.8 339.231 457 313.098 464C286.964 471 257.331 474.5 224.198 474.5ZM423.012 434.4H433.013C438.346 434.4 442.079 433.333 444.213 431.2C446.613 428.8 447.813 424.933 447.813 419.6V316.4C447.813 311.333 446.746 307.6 444.613 305.2C442.479 302.8 438.879 301.6 433.813 301.6H425.413V272H480.613L486.213 294C491.546 285.733 498.346 280 506.613 276.8C515.146 273.6 525.146 272 536.613 272H555.013V301.6H532.613C517.413 301.6 506.613 305.067 500.213 312C493.813 318.667 490.613 329.067 490.613 343.2V419.6C490.613 424.933 491.679 428.8 493.813 431.2C495.946 433.333 499.546 434.4 504.613 434.4H514.613V464H423.012V434.4ZM677.709 470C647.309 470 622.909 461.6 604.509 444.8C586.376 427.733 577.309 402.933 577.309 370.4C577.309 335.733 585.709 309.733 602.509 292.4C619.576 274.8 643.709 266 674.909 266C705.043 266 727.843 274.533 743.309 291.6C758.776 308.667 766.509 331.733 766.509 360.8V379.2H619.709C619.709 400.8 624.909 416.8 635.309 427.2C645.976 437.333 660.243 442.4 678.109 442.4C688.243 442.4 696.776 441.733 703.709 440.4C710.643 438.8 716.909 436.267 722.509 432.8V418.4H759.709V446.4C748.509 454.4 736.376 460.267 723.309 464C710.509 468 695.309 470 677.709 470ZM725.309 353.2C725.309 314.267 708.376 294.8 674.509 294.8C656.643 294.8 643.043 300 633.709 310.4C624.376 320.8 619.709 335.067 619.709 353.2H725.309ZM792.934 434.4H802.934C808.268 434.4 812.001 433.333 814.134 431.2C816.534 428.8 817.734 424.933 817.734 419.6V316.8C817.734 311.467 816.668 307.733 814.534 305.6C812.401 303.2 808.668 302 803.334 302H794.934V272H846.134L848.534 298.8C857.601 287.333 867.868 279.067 879.334 274C891.068 268.667 905.201 266 921.734 266C964.401 266 985.734 288.133 985.734 332.4V419.6C985.734 424.933 986.801 428.8 988.934 431.2C991.334 433.333 995.201 434.4 1000.53 434.4H1011.73V464H942.934V332.8C942.934 319.467 940.134 309.867 934.534 304C928.934 297.867 919.868 294.8 907.334 294.8C893.734 294.8 882.534 298.667 873.734 306.4C864.934 314.133 860.534 324.933 860.534 338.8V419.6C860.534 424.933 861.468 428.8 863.334 431.2C865.468 433.333 869.068 434.4 874.134 434.4H884.534V464H792.934V434.4ZM1132.35 470C1099.82 470 1075.28 461.067 1058.75 443.2C1042.22 425.333 1033.95 400.4 1033.95 368.4C1033.95 336.133 1042.08 311.067 1058.35 293.2C1074.88 275.067 1099.55 266 1132.35 266C1165.15 266 1189.68 275.067 1205.95 293.2C1222.48 311.067 1230.75 336.133 1230.75 368.4C1230.75 400.4 1222.48 425.333 1205.95 443.2C1189.42 461.067 1164.88 470 1132.35 470ZM1132.35 440C1151.55 440 1165.82 434.133 1175.15 422.4C1184.48 410.667 1189.15 392.667 1189.15 368.4C1189.15 343.867 1184.48 325.733 1175.15 314C1165.82 302 1151.55 296 1132.35 296C1113.15 296 1098.88 302 1089.55 314C1080.48 325.733 1075.95 343.867 1075.95 368.4C1075.95 392.667 1080.48 410.667 1089.55 422.4C1098.88 434.133 1113.15 440 1132.35 440Z"/>
<path d="M1326.8 427H1340.3C1347.63 427 1352.63 425.667 1355.3 423C1358.3 420 1359.8 415.333 1359.8 409V178H1313.8C1307.13 178 1302.3 179.5 1299.3 182.5C1296.3 185.167 1294.8 189.667 1294.8 196V212H1255.3V141H1516.8V212H1477.3V196C1477.3 189.333 1475.8 184.667 1472.8 182C1470.13 179.333 1465.3 178 1458.3 178H1412.8V409C1412.8 415.333 1414.13 420 1416.8 423C1419.8 425.667 1424.96 427 1432.3 427H1445.8V464H1326.8V427ZM1640.06 470C1607.53 470 1583 461.067 1566.46 443.2C1549.93 425.333 1541.66 400.4 1541.66 368.4C1541.66 336.133 1549.8 311.067 1566.06 293.2C1582.6 275.067 1607.26 266 1640.06 266C1672.86 266 1697.4 275.067 1713.66 293.2C1730.2 311.067 1738.46 336.133 1738.46 368.4C1738.46 400.4 1730.2 425.333 1713.66 443.2C1697.13 461.067 1672.6 470 1640.06 470ZM1640.06 440C1659.26 440 1673.53 434.133 1682.86 422.4C1692.2 410.667 1696.86 392.667 1696.86 368.4C1696.86 343.867 1692.2 325.733 1682.86 314C1673.53 302 1659.26 296 1640.06 296C1620.86 296 1606.6 302 1597.26 314C1588.2 325.733 1583.66 343.867 1583.66 368.4C1583.66 392.667 1588.2 410.667 1597.26 422.4C1606.6 434.133 1620.86 440 1640.06 440ZM1839.05 470C1817.18 470 1800.65 464.267 1789.45 452.8C1778.25 441.333 1772.65 424.933 1772.65 403.6V316.4C1772.65 311.333 1771.45 307.6 1769.05 305.2C1766.92 302.8 1763.32 301.6 1758.25 301.6H1746.65V272H1815.45V403.2C1815.45 429.067 1827.98 442 1853.05 442C1866.65 442 1877.58 438 1885.85 430C1894.12 422 1898.25 410.533 1898.25 395.6V316.4C1898.25 311.333 1897.18 307.6 1895.05 305.2C1893.18 302.8 1889.85 301.6 1885.05 301.6H1873.85V272H1940.65V419.6C1940.65 424.667 1941.85 428.4 1944.25 430.8C1946.65 432.933 1950.38 434 1955.45 434H1963.45V464H1912.65L1910.25 438C1901.72 449.2 1891.72 457.333 1880.25 462.4C1869.05 467.467 1855.32 470 1839.05 470ZM1985.81 434.4H1995.81C2001.14 434.4 2004.87 433.333 2007.01 431.2C2009.41 428.8 2010.61 424.933 2010.61 419.6V316.4C2010.61 311.333 2009.54 307.6 2007.41 305.2C2005.27 302.8 2001.67 301.6 1996.61 301.6H1988.21V272H2043.41L2049.01 294C2054.34 285.733 2061.14 280 2069.41 276.8C2077.94 273.6 2087.94 272 2099.41 272H2117.81V301.6H2095.41C2080.21 301.6 2069.41 305.067 2063.01 312C2056.61 318.667 2053.41 329.067 2053.41 343.2V419.6C2053.41 424.933 2054.47 428.8 2056.61 431.2C2058.74 433.333 2062.34 434.4 2067.41 434.4H2077.41V464H1985.81V434.4Z"/>
</mask>
<path d="M224.198 474.5C176.131 474.5 135.298 464.7 101.698 445.1C68.0977 425.033 42.6643 397.5 25.3977 362.5C8.59766 327.033 0.197656 286.2 0.197656 240C0.197656 193.333 8.13099 152.033 23.9977 116.1C39.8643 80.1667 64.131 51.9333 96.7977 31.4C129.931 10.8666 170.998 0.599958 219.998 0.599958C253.598 0.599958 282.531 3.86664 306.798 10.4C331.531 16.4666 353.231 26.2666 371.898 39.8V111.2H297.698V67.8C277.631 57.5333 251.731 52.4 219.998 52.4C173.331 52.4 137.164 68.9667 111.498 102.1C85.831 135.233 72.9977 181.2 72.9977 240C72.9977 297.4 86.531 342.2 113.598 374.4C140.664 406.6 178.464 422.7 226.998 422.7C259.664 422.7 288.364 417.8 313.098 408V277.1H215.798V225.3H386.598V430.4C363.731 445.8 339.231 457 313.098 464C286.964 471 257.331 474.5 224.198 474.5ZM423.012 434.4H433.013C438.346 434.4 442.079 433.333 444.213 431.2C446.613 428.8 447.813 424.933 447.813 419.6V316.4C447.813 311.333 446.746 307.6 444.613 305.2C442.479 302.8 438.879 301.6 433.813 301.6H425.413V272H480.613L486.213 294C491.546 285.733 498.346 280 506.613 276.8C515.146 273.6 525.146 272 536.613 272H555.013V301.6H532.613C517.413 301.6 506.613 305.067 500.213 312C493.813 318.667 490.613 329.067 490.613 343.2V419.6C490.613 424.933 491.679 428.8 493.813 431.2C495.946 433.333 499.546 434.4 504.613 434.4H514.613V464H423.012V434.4ZM677.709 470C647.309 470 622.909 461.6 604.509 444.8C586.376 427.733 577.309 402.933 577.309 370.4C577.309 335.733 585.709 309.733 602.509 292.4C619.576 274.8 643.709 266 674.909 266C705.043 266 727.843 274.533 743.309 291.6C758.776 308.667 766.509 331.733 766.509 360.8V379.2H619.709C619.709 400.8 624.909 416.8 635.309 427.2C645.976 437.333 660.243 442.4 678.109 442.4C688.243 442.4 696.776 441.733 703.709 440.4C710.643 438.8 716.909 436.267 722.509 432.8V418.4H759.709V446.4C748.509 454.4 736.376 460.267 723.309 464C710.509 468 695.309 470 677.709 470ZM725.309 353.2C725.309 314.267 708.376 294.8 674.509 294.8C656.643 294.8 643.043 300 633.709 310.4C624.376 320.8 619.709 335.067 619.709 353.2H725.309ZM792.934 434.4H802.934C808.268 434.4 812.001 433.333 814.134 431.2C816.534 428.8 817.734 424.933 817.734 419.6V316.8C817.734 311.467 816.668 307.733 814.534 305.6C812.401 303.2 808.668 302 803.334 302H794.934V272H846.134L848.534 298.8C857.601 287.333 867.868 279.067 879.334 274C891.068 268.667 905.201 266 921.734 266C964.401 266 985.734 288.133 985.734 332.4V419.6C985.734 424.933 986.801 428.8 988.934 431.2C991.334 433.333 995.201 434.4 1000.53 434.4H1011.73V464H942.934V332.8C942.934 319.467 940.134 309.867 934.534 304C928.934 297.867 919.868 294.8 907.334 294.8C893.734 294.8 882.534 298.667 873.734 306.4C864.934 314.133 860.534 324.933 860.534 338.8V419.6C860.534 424.933 861.468 428.8 863.334 431.2C865.468 433.333 869.068 434.4 874.134 434.4H884.534V464H792.934V434.4ZM1132.35 470C1099.82 470 1075.28 461.067 1058.75 443.2C1042.22 425.333 1033.95 400.4 1033.95 368.4C1033.95 336.133 1042.08 311.067 1058.35 293.2C1074.88 275.067 1099.55 266 1132.35 266C1165.15 266 1189.68 275.067 1205.95 293.2C1222.48 311.067 1230.75 336.133 1230.75 368.4C1230.75 400.4 1222.48 425.333 1205.95 443.2C1189.42 461.067 1164.88 470 1132.35 470ZM1132.35 440C1151.55 440 1165.82 434.133 1175.15 422.4C1184.48 410.667 1189.15 392.667 1189.15 368.4C1189.15 343.867 1184.48 325.733 1175.15 314C1165.82 302 1151.55 296 1132.35 296C1113.15 296 1098.88 302 1089.55 314C1080.48 325.733 1075.95 343.867 1075.95 368.4C1075.95 392.667 1080.48 410.667 1089.55 422.4C1098.88 434.133 1113.15 440 1132.35 440Z" fill="#1C6C00"/>
<path d="M1326.8 427H1340.3C1347.63 427 1352.63 425.667 1355.3 423C1358.3 420 1359.8 415.333 1359.8 409V178H1313.8C1307.13 178 1302.3 179.5 1299.3 182.5C1296.3 185.167 1294.8 189.667 1294.8 196V212H1255.3V141H1516.8V212H1477.3V196C1477.3 189.333 1475.8 184.667 1472.8 182C1470.13 179.333 1465.3 178 1458.3 178H1412.8V409C1412.8 415.333 1414.13 420 1416.8 423C1419.8 425.667 1424.96 427 1432.3 427H1445.8V464H1326.8V427ZM1640.06 470C1607.53 470 1583 461.067 1566.46 443.2C1549.93 425.333 1541.66 400.4 1541.66 368.4C1541.66 336.133 1549.8 311.067 1566.06 293.2C1582.6 275.067 1607.26 266 1640.06 266C1672.86 266 1697.4 275.067 1713.66 293.2C1730.2 311.067 1738.46 336.133 1738.46 368.4C1738.46 400.4 1730.2 425.333 1713.66 443.2C1697.13 461.067 1672.6 470 1640.06 470ZM1640.06 440C1659.26 440 1673.53 434.133 1682.86 422.4C1692.2 410.667 1696.86 392.667 1696.86 368.4C1696.86 343.867 1692.2 325.733 1682.86 314C1673.53 302 1659.26 296 1640.06 296C1620.86 296 1606.6 302 1597.26 314C1588.2 325.733 1583.66 343.867 1583.66 368.4C1583.66 392.667 1588.2 410.667 1597.26 422.4C1606.6 434.133 1620.86 440 1640.06 440ZM1839.05 470C1817.18 470 1800.65 464.267 1789.45 452.8C1778.25 441.333 1772.65 424.933 1772.65 403.6V316.4C1772.65 311.333 1771.45 307.6 1769.05 305.2C1766.92 302.8 1763.32 301.6 1758.25 301.6H1746.65V272H1815.45V403.2C1815.45 429.067 1827.98 442 1853.05 442C1866.65 442 1877.58 438 1885.85 430C1894.12 422 1898.25 410.533 1898.25 395.6V316.4C1898.25 311.333 1897.18 307.6 1895.05 305.2C1893.18 302.8 1889.85 301.6 1885.05 301.6H1873.85V272H1940.65V419.6C1940.65 424.667 1941.85 428.4 1944.25 430.8C1946.65 432.933 1950.38 434 1955.45 434H1963.45V464H1912.65L1910.25 438C1901.72 449.2 1891.72 457.333 1880.25 462.4C1869.05 467.467 1855.32 470 1839.05 470ZM1985.81 434.4H1995.81C2001.14 434.4 2004.87 433.333 2007.01 431.2C2009.41 428.8 2010.61 424.933 2010.61 419.6V316.4C2010.61 311.333 2009.54 307.6 2007.41 305.2C2005.27 302.8 2001.67 301.6 1996.61 301.6H1988.21V272H2043.41L2049.01 294C2054.34 285.733 2061.14 280 2069.41 276.8C2077.94 273.6 2087.94 272 2099.41 272H2117.81V301.6H2095.41C2080.21 301.6 2069.41 305.067 2063.01 312C2056.61 318.667 2053.41 329.067 2053.41 343.2V419.6C2053.41 424.933 2054.47 428.8 2056.61 431.2C2058.74 433.333 2062.34 434.4 2067.41 434.4H2077.41V464H1985.81V434.4Z" fill="black"/>
<path d="M101.698 445.1L96.5702 453.685L96.6145 453.712L96.6589 453.738L101.698 445.1ZM25.3977 362.5L16.3603 366.781L16.3944 366.853L16.4296 366.924L25.3977 362.5ZM23.9977 116.1L33.1455 120.139L23.9977 116.1ZM96.7977 31.4L91.53 22.8999L91.5029 22.9167L91.4759 22.9336L96.7977 31.4ZM306.798 10.4L304.198 20.0562L304.306 20.0854L304.415 20.1121L306.798 10.4ZM371.898 39.8H381.898V34.6984L377.767 31.7039L371.898 39.8ZM371.898 111.2V121.2H381.898V111.2H371.898ZM297.698 111.2H287.698V121.2H297.698V111.2ZM297.698 67.8H307.698V61.6834L302.252 58.8975L297.698 67.8ZM111.498 102.1L103.592 95.976L103.592 95.976L111.498 102.1ZM113.598 374.4L105.943 380.835L105.943 380.835L113.598 374.4ZM313.098 408L316.781 417.297L323.098 414.794V408H313.098ZM313.098 277.1H323.098V267.1H313.098V277.1ZM215.798 277.1H205.798V287.1H215.798V277.1ZM215.798 225.3V215.3H205.798V225.3H215.798ZM386.598 225.3H396.598V215.3H386.598V225.3ZM386.598 430.4L392.184 438.694L396.598 435.722V430.4H386.598ZM313.098 464L310.51 454.341L313.098 464ZM224.198 464.5C177.487 464.5 138.485 454.982 106.736 436.462L96.6589 453.738C132.11 474.418 174.775 484.5 224.198 484.5V464.5ZM106.825 436.515C74.8746 417.433 50.7773 391.343 34.3657 358.076L16.4296 366.924C34.5513 403.657 61.3207 432.634 96.5702 453.685L106.825 436.515ZM34.435 358.219C18.3716 324.307 10.1977 284.98 10.1977 240H-9.80234C-9.80234 287.42 -1.17627 329.759 16.3603 366.781L34.435 358.219ZM10.1977 240C10.1977 194.467 17.9363 154.584 33.1455 120.139L14.8498 112.061C-1.67427 149.483 -9.80234 192.2 -9.80234 240H10.1977ZM33.1455 120.139C48.2222 85.9951 71.1731 59.3183 102.119 39.8663L91.4759 22.9336C57.0889 44.5484 31.5064 74.3382 14.8498 112.061L33.1455 120.139ZM102.065 39.9001C133.256 20.5704 172.384 10.6 219.998 10.6V-9.40004C169.611 -9.40004 126.606 1.16287 91.53 22.8999L102.065 39.9001ZM219.998 10.6C252.995 10.6 281.009 13.8129 304.198 20.0562L309.397 0.743844C284.053 -6.07962 254.201 -9.40004 219.998 -9.40004V10.6ZM304.415 20.1121C328.024 25.9029 348.513 35.1975 366.028 47.8961L377.767 31.7039C357.949 17.3358 335.038 7.03036 309.18 0.687888L304.415 20.1121ZM361.898 39.8V111.2H381.898V39.8H361.898ZM371.898 101.2H297.698V121.2H371.898V101.2ZM307.698 111.2V67.8H287.698V111.2H307.698ZM302.252 58.8975C280.32 47.6763 252.708 42.4 219.998 42.4V62.4C250.754 62.4 274.942 67.3903 293.143 76.7025L302.252 58.8975ZM219.998 42.4C170.639 42.4 131.386 60.0971 103.592 95.976L119.403 108.224C142.943 77.8362 176.023 62.4 219.998 62.4V42.4ZM103.592 95.976C76.115 131.446 62.9977 179.857 62.9977 240H82.9977C82.9977 182.543 95.5469 139.02 119.403 108.224L103.592 95.976ZM62.9977 240C62.9977 298.896 76.8886 346.27 105.943 380.835L121.253 367.965C96.1734 338.13 82.9977 295.903 82.9977 240H62.9977ZM105.943 380.835C135.213 415.656 176.018 432.7 226.998 432.7V412.7C180.911 412.7 146.116 397.544 121.253 367.965L105.943 380.835ZM226.998 432.7C260.647 432.7 290.642 427.654 316.781 417.297L309.414 398.703C286.087 407.946 258.682 412.7 226.998 412.7V432.7ZM323.098 408V277.1H303.098V408H323.098ZM313.098 267.1H215.798V287.1H313.098V267.1ZM225.798 277.1V225.3H205.798V277.1H225.798ZM215.798 235.3H386.598V215.3H215.798V235.3ZM376.598 225.3V430.4H396.598V225.3H376.598ZM381.012 422.106C359.044 436.9 335.555 447.632 310.51 454.341L315.685 473.659C342.907 466.368 368.418 454.7 392.184 438.694L381.012 422.106ZM310.51 454.341C285.385 461.071 256.645 464.5 224.198 464.5V484.5C258.017 484.5 288.544 480.929 315.685 473.659L310.51 454.341ZM423.012 434.4V424.4H413.012V434.4H423.012ZM425.413 301.6H415.413V311.6H425.413V301.6ZM425.413 272V262H415.413V272H425.413ZM480.613 272L490.303 269.533L488.386 262H480.613V272ZM486.213 294L476.522 296.467L482.18 318.696L494.615 299.421L486.213 294ZM506.613 276.8L503.101 267.437L503.052 267.455L503.003 267.474L506.613 276.8ZM555.013 272H565.013V262H555.013V272ZM555.013 301.6V311.6H565.013V301.6H555.013ZM500.213 312L507.426 318.925L507.494 318.855L507.561 318.783L500.213 312ZM493.813 431.2L486.338 437.844L486.534 438.063L486.741 438.271L493.813 431.2ZM514.613 434.4H524.613V424.4H514.613V434.4ZM514.613 464V474H524.613V464H514.613ZM423.012 464H413.012V474H423.012V464ZM423.012 444.4H433.013V424.4H423.012V444.4ZM433.013 444.4C439.123 444.4 446.271 443.284 451.284 438.271L437.141 424.129C437.573 423.697 437.755 423.788 437.065 423.985C436.355 424.188 435.07 424.4 433.013 424.4V444.4ZM451.284 438.271C456.391 433.164 457.813 426.116 457.813 419.6H437.813C437.813 423.75 436.834 424.436 437.141 424.129L451.284 438.271ZM457.813 419.6V316.4H437.813V419.6H457.813ZM457.813 316.4C457.813 310.231 456.562 303.591 452.087 298.556L437.138 311.844C437.021 311.712 437.191 311.826 437.397 312.547C437.611 313.297 437.813 314.53 437.813 316.4H457.813ZM452.087 298.556C447.192 293.05 440.108 291.6 433.813 291.6V311.6C435.608 311.6 436.647 311.819 437.15 311.987C437.592 312.134 437.431 312.173 437.138 311.844L452.087 298.556ZM433.813 291.6H425.413V311.6H433.813V291.6ZM435.413 301.6V272H415.413V301.6H435.413ZM425.413 282H480.613V262H425.413V282ZM470.922 274.467L476.522 296.467L495.903 291.533L490.303 269.533L470.922 274.467ZM494.615 299.421C498.936 292.725 504.141 288.48 510.222 286.126L503.003 267.474C492.551 271.52 484.156 278.741 477.81 288.579L494.615 299.421ZM510.124 286.163C517.286 283.477 526.048 282 536.613 282V262C524.244 262 513.005 263.723 503.101 267.437L510.124 286.163ZM536.613 282H555.013V262H536.613V282ZM545.013 272V301.6H565.013V272H545.013ZM555.013 291.6H532.613V311.6H555.013V291.6ZM532.613 291.6C516.278 291.6 502.046 295.27 492.864 305.217L507.561 318.783C511.179 314.863 518.547 311.6 532.613 311.6V291.6ZM492.999 305.075C484.063 314.383 480.613 327.817 480.613 343.2H500.613C500.613 330.316 503.562 322.951 507.426 318.925L492.999 305.075ZM480.613 343.2V419.6H500.613V343.2H480.613ZM480.613 419.6C480.613 425.875 481.797 432.735 486.338 437.844L501.287 424.556C501.459 424.75 501.278 424.657 501.052 423.841C500.822 423.004 500.613 421.644 500.613 419.6H480.613ZM486.741 438.271C491.681 443.211 498.592 444.4 504.613 444.4V424.4C502.729 424.4 501.573 424.196 500.953 424.012C500.367 423.838 500.518 423.763 500.884 424.129L486.741 438.271ZM504.613 444.4H514.613V424.4H504.613V444.4ZM504.613 434.4V464H524.613V434.4H504.613ZM514.613 454H423.012V474H514.613V454ZM433.012 464V434.4H413.012V464H433.012ZM604.509 444.8L597.656 452.082L597.711 452.134L597.767 452.185L604.509 444.8ZM602.509 292.4L595.33 285.439L595.329 285.44L602.509 292.4ZM743.309 291.6L735.9 298.315L735.9 298.315L743.309 291.6ZM766.509 379.2V389.2H776.509V379.2H766.509ZM619.709 379.2V369.2H609.709V379.2H619.709ZM635.309 427.2L628.238 434.271L628.329 434.362L628.422 434.45L635.309 427.2ZM703.709 440.4L705.598 450.22L705.779 450.185L705.958 450.144L703.709 440.4ZM722.509 432.8L727.773 441.303L732.509 438.371V432.8H722.509ZM722.509 418.4V408.4H712.509V418.4H722.509ZM759.709 418.4H769.709V408.4H759.709V418.4ZM759.709 446.4L765.522 454.537L769.709 451.546V446.4H759.709ZM723.309 464L720.562 454.385L720.444 454.419L720.327 454.455L723.309 464ZM725.309 353.2V363.2H735.309V353.2H725.309ZM633.709 310.4L641.152 317.079L641.152 317.079L633.709 310.4ZM619.709 353.2H609.709V363.2H619.709V353.2ZM677.709 460C649.228 460 627.424 452.181 611.252 437.415L597.767 452.185C618.395 471.019 645.391 480 677.709 480V460ZM611.363 437.518C595.804 422.874 587.309 401.064 587.309 370.4H567.309C567.309 404.803 576.949 432.593 597.656 452.082L611.363 437.518ZM587.309 370.4C587.309 337.198 595.358 314.147 609.69 299.36L595.329 285.44C576.061 305.32 567.309 334.269 567.309 370.4H587.309ZM609.688 299.361C624.391 284.199 645.637 276 674.909 276V256C641.782 256 614.761 265.401 595.33 285.439L609.688 299.361ZM674.909 276C703.139 276 722.869 283.936 735.9 298.315L750.719 284.885C732.817 265.13 706.946 256 674.909 256V276ZM735.9 298.315C749.296 313.097 756.509 333.541 756.509 360.8H776.509C776.509 329.926 768.256 304.236 750.719 284.885L735.9 298.315ZM756.509 360.8V379.2H776.509V360.8H756.509ZM766.509 369.2H619.709V389.2H766.509V369.2ZM609.709 379.2C609.709 402.214 615.239 421.272 628.238 434.271L642.38 420.129C634.58 412.328 629.709 399.386 629.709 379.2H609.709ZM628.422 434.45C641.33 446.712 658.261 452.4 678.109 452.4V432.4C662.225 432.4 650.622 427.954 642.197 419.95L628.422 434.45ZM678.109 452.4C688.628 452.4 697.838 451.712 705.598 450.22L701.821 430.58C695.714 431.754 687.857 432.4 678.109 432.4V452.4ZM705.958 450.144C713.872 448.318 721.171 445.39 727.773 441.303L717.246 424.297C712.648 427.144 707.414 429.282 701.461 430.656L705.958 450.144ZM732.509 432.8V418.4H712.509V432.8H732.509ZM722.509 428.4H759.709V408.4H722.509V428.4ZM749.709 418.4V446.4H769.709V418.4H749.709ZM753.897 438.263C743.615 445.607 732.516 450.969 720.562 454.385L726.057 473.615C740.236 469.564 753.404 463.193 765.522 454.537L753.897 438.263ZM720.327 454.455C708.74 458.076 694.595 460 677.709 460V480C696.024 480 712.279 477.924 726.292 473.545L720.327 454.455ZM735.309 353.2C735.309 332.507 730.839 315.121 720.154 302.837C709.237 290.287 693.375 284.8 674.509 284.8V304.8C689.51 304.8 699.048 309.047 705.064 315.963C711.313 323.146 715.309 334.959 715.309 353.2H735.309ZM674.509 284.8C654.647 284.8 637.996 290.652 626.267 303.721L641.152 317.079C648.09 309.348 658.639 304.8 674.509 304.8V284.8ZM626.267 303.721C614.845 316.448 609.709 333.354 609.709 353.2H629.709C629.709 336.779 633.907 325.152 641.152 317.079L626.267 303.721ZM619.709 363.2H725.309V343.2H619.709V363.2ZM792.934 434.4V424.4H782.934V434.4H792.934ZM814.534 305.6L807.06 312.244L807.256 312.463L807.463 312.671L814.534 305.6ZM794.934 302H784.934V312H794.934V302ZM794.934 272V262H784.934V272H794.934ZM846.134 272L856.095 271.108L855.279 262H846.134V272ZM848.534 298.8L838.574 299.692L840.813 324.689L856.379 305.002L848.534 298.8ZM879.334 274L883.376 283.147L883.424 283.126L883.472 283.104L879.334 274ZM988.934 431.2L981.46 437.844L981.851 438.283L982.291 438.674L988.934 431.2ZM1011.73 434.4H1021.73V424.4H1011.73V434.4ZM1011.73 464V474H1021.73V464H1011.73ZM942.934 464H932.934V474H942.934V464ZM934.534 304L927.15 310.743L927.224 310.825L927.301 310.905L934.534 304ZM873.734 306.4L867.133 298.888L867.133 298.888L873.734 306.4ZM863.334 431.2L855.441 437.339L855.823 437.831L856.263 438.271L863.334 431.2ZM884.534 434.4H894.534V424.4H884.534V434.4ZM884.534 464V474H894.534V464H884.534ZM792.934 464H782.934V474H792.934V464ZM792.934 444.4H802.934V424.4H792.934V444.4ZM802.934 444.4C809.045 444.4 816.193 443.284 821.205 438.271L807.063 424.129C807.495 423.697 807.677 423.788 806.987 423.985C806.277 424.188 804.992 424.4 802.934 424.4V444.4ZM821.205 438.271C826.312 433.164 827.734 426.116 827.734 419.6H807.734C807.734 423.75 806.756 424.436 807.063 424.129L821.205 438.271ZM827.734 419.6V316.8H807.734V419.6H827.734ZM827.734 316.8C827.734 310.69 826.618 303.541 821.605 298.529L807.463 312.671C807.032 312.239 807.122 312.057 807.319 312.747C807.522 313.458 807.734 314.742 807.734 316.8H827.734ZM822.008 298.956C817.034 293.36 809.703 292 803.334 292V312C805.31 312 806.48 312.229 807.074 312.42C807.614 312.594 807.419 312.647 807.06 312.244L822.008 298.956ZM803.334 292H794.934V312H803.334V292ZM804.934 302V272H784.934V302H804.934ZM794.934 282H846.134V262H794.934V282ZM836.174 272.892L838.574 299.692L858.495 297.908L856.095 271.108L836.174 272.892ZM856.379 305.002C864.604 294.599 873.627 287.455 883.376 283.147L875.293 264.853C862.108 270.679 850.598 280.067 840.69 292.598L856.379 305.002ZM883.472 283.104C893.594 278.503 906.24 276 921.734 276V256C904.162 256 888.542 258.83 875.196 264.896L883.472 283.104ZM921.734 276C941.431 276 954.389 281.089 962.534 289.54C970.746 298.059 975.734 311.718 975.734 332.4H995.734C995.734 308.815 990.056 289.274 976.934 275.66C963.746 261.978 944.705 256 921.734 256V276ZM975.734 332.4V419.6H995.734V332.4H975.734ZM975.734 419.6C975.734 425.875 976.919 432.735 981.46 437.844L996.408 424.556C996.581 424.75 996.399 424.657 996.174 423.841C995.944 423.004 995.734 421.644 995.734 419.6H975.734ZM982.291 438.674C987.399 443.215 994.259 444.4 1000.53 444.4V424.4C998.49 424.4 997.13 424.191 996.294 423.96C995.478 423.735 995.384 423.554 995.578 423.726L982.291 438.674ZM1000.53 444.4H1011.73V424.4H1000.53V444.4ZM1001.73 434.4V464H1021.73V434.4H1001.73ZM1011.73 454H942.934V474H1011.73V454ZM952.934 464V332.8H932.934V464H952.934ZM952.934 332.8C952.934 318.46 949.99 305.709 941.768 297.095L927.301 310.905C930.279 314.025 932.934 320.474 932.934 332.8H952.934ZM941.919 297.257C933.637 288.187 921.247 284.8 907.334 284.8V304.8C918.488 304.8 924.231 307.547 927.15 310.743L941.919 297.257ZM907.334 284.8C891.719 284.8 878.047 289.297 867.133 298.888L880.336 313.912C887.021 308.036 895.749 304.8 907.334 304.8V284.8ZM867.133 298.888C855.772 308.872 850.534 322.637 850.534 338.8H870.534C870.534 327.23 874.096 319.394 880.336 313.912L867.133 298.888ZM850.534 338.8V419.6H870.534V338.8H850.534ZM850.534 419.6C850.534 425.658 851.51 432.285 855.441 437.339L871.228 425.061C871.391 425.27 871.187 425.114 870.955 424.154C870.725 423.198 870.534 421.726 870.534 419.6H850.534ZM856.263 438.271C861.203 443.211 868.114 444.4 874.134 444.4V424.4C872.251 424.4 871.095 424.196 870.475 424.012C869.888 423.838 870.039 423.763 870.405 424.129L856.263 438.271ZM874.134 444.4H884.534V424.4H874.134V444.4ZM874.534 434.4V464H894.534V434.4H874.534ZM884.534 454H792.934V474H884.534V454ZM802.934 464V434.4H782.934V464H802.934ZM1058.75 443.2L1066.09 436.408L1066.09 436.408L1058.75 443.2ZM1058.35 293.2L1050.96 286.462L1050.96 286.468L1058.35 293.2ZM1205.95 293.2L1198.51 299.878L1198.56 299.935L1198.61 299.992L1205.95 293.2ZM1205.95 443.2L1198.61 436.408L1205.95 443.2ZM1175.15 422.4L1167.32 416.175L1167.32 416.175L1175.15 422.4ZM1175.15 314L1167.26 320.139L1167.29 320.182L1167.32 320.225L1175.15 314ZM1089.55 314L1081.66 307.861L1081.65 307.873L1081.64 307.886L1089.55 314ZM1089.55 422.4L1081.64 428.514L1081.68 428.57L1081.72 428.625L1089.55 422.4ZM1132.35 460C1101.62 460 1080.15 451.607 1066.09 436.408L1051.41 449.992C1070.41 470.527 1098.01 480 1132.35 480V460ZM1066.09 436.408C1051.75 420.91 1043.95 398.695 1043.95 368.4H1023.95C1023.95 402.105 1032.68 429.756 1051.41 449.992L1066.09 436.408ZM1043.95 368.4C1043.95 337.773 1051.65 315.413 1065.74 299.932L1050.96 286.468C1032.52 306.72 1023.95 334.494 1023.95 368.4H1043.95ZM1065.74 299.938C1079.8 284.517 1101.37 276 1132.35 276V256C1097.73 256 1069.97 265.616 1050.96 286.462L1065.74 299.938ZM1132.35 276C1163.34 276 1184.73 284.521 1198.51 299.878L1213.39 286.522C1194.64 265.613 1166.96 256 1132.35 256V276ZM1198.61 299.992C1212.94 315.475 1220.75 337.813 1220.75 368.4H1240.75C1240.75 334.454 1232.03 306.658 1213.29 286.408L1198.61 299.992ZM1220.75 368.4C1220.75 398.695 1212.95 420.91 1198.61 436.408L1213.29 449.992C1232.02 429.756 1240.75 402.105 1240.75 368.4H1220.75ZM1198.61 436.408C1184.55 451.607 1163.08 460 1132.35 460V480C1166.69 480 1194.29 470.527 1213.29 449.992L1198.61 436.408ZM1132.35 450C1153.67 450 1171.23 443.388 1182.98 428.625L1167.32 416.175C1160.4 424.879 1149.43 430 1132.35 430V450ZM1182.98 428.625C1194.35 414.321 1199.15 393.63 1199.15 368.4H1179.15C1179.15 391.703 1174.61 407.013 1167.32 416.175L1182.98 428.625ZM1199.15 368.4C1199.15 342.935 1194.37 322.094 1182.98 307.775L1167.32 320.225C1174.6 329.372 1179.15 344.799 1179.15 368.4H1199.15ZM1183.04 307.861C1171.33 292.799 1153.74 286 1132.35 286V306C1149.36 306 1160.3 311.201 1167.26 320.139L1183.04 307.861ZM1132.35 286C1110.96 286 1093.37 292.799 1081.66 307.861L1097.44 320.139C1104.4 311.201 1115.34 306 1132.35 306V286ZM1081.64 307.886C1070.58 322.19 1065.95 342.981 1065.95 368.4H1085.95C1085.95 344.753 1090.38 329.277 1097.46 320.114L1081.64 307.886ZM1065.95 368.4C1065.95 393.583 1070.6 414.225 1081.64 428.514L1097.46 416.286C1090.37 407.109 1085.95 391.75 1085.95 368.4H1065.95ZM1081.72 428.625C1093.47 443.388 1111.03 450 1132.35 450V430C1115.27 430 1104.3 424.879 1097.38 416.175L1081.72 428.625ZM1326.8 427V417H1316.8V427H1326.8ZM1355.3 423L1348.23 415.929L1355.3 423ZM1359.8 178H1369.8V168H1359.8V178ZM1299.3 182.5L1305.94 189.974L1306.16 189.779L1306.37 189.571L1299.3 182.5ZM1294.8 212V222H1304.8V212H1294.8ZM1255.3 212H1245.3V222H1255.3V212ZM1255.3 141V131H1245.3V141H1255.3ZM1516.8 141H1526.8V131H1516.8V141ZM1516.8 212V222H1526.8V212H1516.8ZM1477.3 212H1467.3V222H1477.3V212ZM1472.8 182L1465.73 189.071L1465.93 189.279L1466.15 189.474L1472.8 182ZM1412.8 178V168H1402.8V178H1412.8ZM1416.8 423L1409.32 429.644L1409.71 430.083L1410.15 430.474L1416.8 423ZM1445.8 427H1455.8V417H1445.8V427ZM1445.8 464V474H1455.8V464H1445.8ZM1326.8 464H1316.8V474H1326.8V464ZM1326.8 437H1340.3V417H1326.8V437ZM1340.3 437C1348.08 437 1356.7 435.743 1362.37 430.071L1348.23 415.929C1348.52 415.639 1348.38 415.963 1346.97 416.338C1345.58 416.709 1343.42 417 1340.3 417V437ZM1362.37 430.071C1367.99 424.445 1369.8 416.691 1369.8 409H1349.8C1349.8 413.975 1348.6 415.555 1348.23 415.929L1362.37 430.071ZM1369.8 409V178H1349.8V409H1369.8ZM1359.8 168H1313.8V188H1359.8V168ZM1313.8 168C1305.95 168 1297.93 169.722 1292.23 175.429L1306.37 189.571C1306.66 189.278 1308.31 188 1313.8 188V168ZM1292.65 175.026C1286.55 180.454 1284.8 188.438 1284.8 196H1304.8C1304.8 193.571 1305.09 191.991 1305.41 191.037C1305.56 190.579 1305.71 190.306 1305.8 190.161C1305.88 190.024 1305.94 189.979 1305.94 189.974L1292.65 175.026ZM1284.8 196V212H1304.8V196H1284.8ZM1294.8 202H1255.3V222H1294.8V202ZM1265.3 212V141H1245.3V212H1265.3ZM1255.3 151H1516.8V131H1255.3V151ZM1506.8 141V212H1526.8V141H1506.8ZM1516.8 202H1477.3V222H1516.8V202ZM1487.3 212V196H1467.3V212H1487.3ZM1487.3 196C1487.3 188.298 1485.64 180.033 1479.44 174.526L1466.15 189.474C1466.05 189.382 1466.33 189.553 1466.65 190.56C1466.99 191.621 1467.3 193.358 1467.3 196H1487.3ZM1479.87 174.929C1474.26 169.317 1465.91 168 1458.3 168V188C1461.22 188 1463.23 188.286 1464.51 188.64C1465.79 188.993 1465.95 189.299 1465.73 189.071L1479.87 174.929ZM1458.3 168H1412.8V188H1458.3V168ZM1402.8 178V409H1422.8V178H1402.8ZM1402.8 409C1402.8 416.436 1404.31 424.009 1409.32 429.644L1424.27 416.356C1423.95 415.991 1422.8 414.231 1422.8 409H1402.8ZM1410.15 430.474C1415.99 435.663 1424.32 437 1432.3 437V417C1429.18 417 1426.95 416.711 1425.42 416.317C1423.89 415.922 1423.43 415.515 1423.44 415.526L1410.15 430.474ZM1432.3 437H1445.8V417H1432.3V437ZM1435.8 427V464H1455.8V427H1435.8ZM1445.8 454H1326.8V474H1445.8V454ZM1336.8 464V427H1316.8V464H1336.8ZM1566.46 443.2L1573.8 436.408L1573.8 436.408L1566.46 443.2ZM1566.06 293.2L1558.68 286.462L1558.67 286.468L1566.06 293.2ZM1713.66 293.2L1706.22 299.878L1706.27 299.935L1706.33 299.992L1713.66 293.2ZM1713.66 443.2L1706.33 436.408L1713.66 443.2ZM1682.86 422.4L1675.04 416.175L1675.04 416.175L1682.86 422.4ZM1682.86 314L1674.97 320.139L1675 320.182L1675.04 320.225L1682.86 314ZM1597.26 314L1589.37 307.861L1589.36 307.873L1589.35 307.886L1597.26 314ZM1597.26 422.4L1589.35 428.514L1589.4 428.57L1589.44 428.625L1597.26 422.4ZM1640.06 460C1609.34 460 1587.87 451.607 1573.8 436.408L1559.13 449.992C1578.13 470.527 1605.72 480 1640.06 480V460ZM1573.8 436.408C1559.46 420.91 1551.66 398.695 1551.66 368.4H1531.66C1531.66 402.105 1540.4 429.756 1559.13 449.992L1573.8 436.408ZM1551.66 368.4C1551.66 337.773 1559.36 315.413 1573.46 299.932L1558.67 286.468C1540.23 306.72 1531.66 334.494 1531.66 368.4H1551.66ZM1573.45 299.938C1587.51 284.517 1609.09 276 1640.06 276V256C1605.44 256 1577.68 265.616 1558.68 286.462L1573.45 299.938ZM1640.06 276C1671.06 276 1692.45 284.521 1706.22 299.878L1721.11 286.522C1702.35 265.613 1674.67 256 1640.06 256V276ZM1706.33 299.992C1720.65 315.475 1728.46 337.813 1728.46 368.4H1748.46C1748.46 334.454 1739.74 306.658 1721 286.408L1706.33 299.992ZM1728.46 368.4C1728.46 398.695 1720.67 420.91 1706.33 436.408L1721 449.992C1739.73 429.756 1748.46 402.105 1748.46 368.4H1728.46ZM1706.33 436.408C1692.26 451.607 1670.79 460 1640.06 460V480C1674.4 480 1702 470.527 1721 449.992L1706.33 436.408ZM1640.06 450C1661.38 450 1678.95 443.388 1690.69 428.625L1675.04 416.175C1668.12 424.879 1657.15 430 1640.06 430V450ZM1690.69 428.625C1702.07 414.321 1706.86 393.63 1706.86 368.4H1686.86C1686.86 391.703 1682.33 407.013 1675.04 416.175L1690.69 428.625ZM1706.86 368.4C1706.86 342.935 1702.08 322.094 1690.69 307.775L1675.04 320.225C1682.32 329.372 1686.86 344.799 1686.86 368.4H1706.86ZM1690.76 307.861C1679.04 292.799 1661.46 286 1640.06 286V306C1657.07 306 1668.02 311.201 1674.97 320.139L1690.76 307.861ZM1640.06 286C1618.67 286 1601.09 292.799 1589.37 307.861L1605.16 320.139C1612.11 311.201 1623.06 306 1640.06 306V286ZM1589.35 307.886C1578.3 322.19 1573.66 342.981 1573.66 368.4H1593.66C1593.66 344.753 1598.1 329.277 1605.18 320.114L1589.35 307.886ZM1573.66 368.4C1573.66 393.583 1578.31 414.225 1589.35 428.514L1605.18 416.286C1598.09 407.109 1593.66 391.75 1593.66 368.4H1573.66ZM1589.44 428.625C1601.18 443.388 1618.75 450 1640.06 450V430C1622.98 430 1612.01 424.879 1605.09 416.175L1589.44 428.625ZM1789.45 452.8L1796.6 445.813L1796.6 445.813L1789.45 452.8ZM1769.05 305.2L1761.58 311.844L1761.77 312.063L1761.98 312.271L1769.05 305.2ZM1746.65 301.6H1736.65V311.6H1746.65V301.6ZM1746.65 272V262H1736.65V272H1746.65ZM1815.45 272H1825.45V262H1815.45V272ZM1885.85 430L1892.8 437.186L1892.8 437.186L1885.85 430ZM1895.05 305.2L1887.16 311.339L1887.36 311.598L1887.58 311.844L1895.05 305.2ZM1873.85 301.6H1863.85V311.6H1873.85V301.6ZM1873.85 272V262H1863.85V272H1873.85ZM1940.65 272H1950.65V262H1940.65V272ZM1944.25 430.8L1937.18 437.871L1937.39 438.079L1937.61 438.274L1944.25 430.8ZM1963.45 434H1973.45V424H1963.45V434ZM1963.45 464V474H1973.45V464H1963.45ZM1912.65 464L1902.69 464.919L1903.53 474H1912.65V464ZM1910.25 438L1920.21 437.081L1917.85 411.526L1902.29 431.94L1910.25 438ZM1880.25 462.4L1876.21 453.253L1876.17 453.271L1876.13 453.289L1880.25 462.4ZM1839.05 460C1818.87 460 1805.32 454.734 1796.6 445.813L1782.3 459.787C1795.98 473.799 1815.5 480 1839.05 480V460ZM1796.6 445.813C1787.77 436.767 1782.65 423.212 1782.65 403.6H1762.65C1762.65 426.655 1768.73 445.9 1782.3 459.787L1796.6 445.813ZM1782.65 403.6V316.4H1762.65V403.6H1782.65ZM1782.65 316.4C1782.65 309.975 1781.15 303.155 1776.12 298.129L1761.98 312.271C1761.75 312.045 1762.65 312.691 1762.65 316.4H1782.65ZM1776.52 298.556C1771.63 293.05 1764.54 291.6 1758.25 291.6V311.6C1760.04 311.6 1761.08 311.819 1761.59 311.987C1762.03 312.134 1761.87 312.173 1761.58 311.844L1776.52 298.556ZM1758.25 291.6H1746.65V311.6H1758.25V291.6ZM1756.65 301.6V272H1736.65V301.6H1756.65ZM1746.65 282H1815.45V262H1746.65V282ZM1805.45 272V403.2H1825.45V272H1805.45ZM1805.45 403.2C1805.45 417.597 1808.93 430.246 1817.67 439.259C1826.46 448.33 1838.89 452 1853.05 452V432C1842.14 432 1835.77 429.203 1832.03 425.341C1828.23 421.42 1825.45 414.669 1825.45 403.2H1805.45ZM1853.05 452C1868.74 452 1882.34 447.315 1892.8 437.186L1878.9 422.814C1872.83 428.685 1864.56 432 1853.05 432V452ZM1892.8 437.186C1903.55 426.785 1908.25 412.396 1908.25 395.6H1888.25C1888.25 408.671 1884.68 417.215 1878.9 422.814L1892.8 437.186ZM1908.25 395.6V316.4H1888.25V395.6H1908.25ZM1908.25 316.4C1908.25 310.231 1907 303.591 1902.52 298.556L1887.58 311.844C1887.46 311.712 1887.63 311.826 1887.83 312.547C1888.05 313.297 1888.25 314.53 1888.25 316.4H1908.25ZM1902.94 299.061C1898.3 293.089 1891.13 291.6 1885.05 291.6V311.6C1886.68 311.6 1887.49 311.811 1887.76 311.909C1887.95 311.976 1887.57 311.867 1887.16 311.339L1902.94 299.061ZM1885.05 291.6H1873.85V311.6H1885.05V291.6ZM1883.85 301.6V272H1863.85V301.6H1883.85ZM1873.85 282H1940.65V262H1873.85V282ZM1930.65 272V419.6H1950.65V272H1930.65ZM1930.65 419.6C1930.65 426.025 1932.15 432.845 1937.18 437.871L1951.32 423.729C1951.55 423.955 1950.65 423.309 1950.65 419.6H1930.65ZM1937.61 438.274C1942.64 442.749 1949.28 444 1955.45 444V424C1953.58 424 1952.35 423.799 1951.6 423.585C1950.88 423.379 1950.76 423.209 1950.89 423.326L1937.61 438.274ZM1955.45 444H1963.45V424H1955.45V444ZM1953.45 434V464H1973.45V434H1953.45ZM1963.45 454H1912.65V474H1963.45V454ZM1922.61 463.081L1920.21 437.081L1900.29 438.919L1902.69 464.919L1922.61 463.081ZM1902.29 431.94C1894.66 441.965 1885.95 448.949 1876.21 453.253L1884.29 471.547C1897.48 465.717 1908.78 456.435 1918.2 444.06L1902.29 431.94ZM1876.13 453.289C1866.57 457.613 1854.33 460 1839.05 460V480C1856.3 480 1871.53 477.321 1884.37 471.511L1876.13 453.289ZM1985.81 434.4V424.4H1975.81V434.4H1985.81ZM1988.21 301.6H1978.21V311.6H1988.21V301.6ZM1988.21 272V262H1978.21V272H1988.21ZM2043.41 272L2053.1 269.533L2051.18 262H2043.41V272ZM2049.01 294L2039.31 296.467L2044.97 318.696L2057.41 299.421L2049.01 294ZM2069.41 276.8L2065.89 267.437L2065.84 267.455L2065.8 267.474L2069.41 276.8ZM2117.81 272H2127.81V262H2117.81V272ZM2117.81 301.6V311.6H2127.81V301.6H2117.81ZM2063.01 312L2070.22 318.925L2070.29 318.855L2070.35 318.783L2063.01 312ZM2056.61 431.2L2049.13 437.844L2049.33 438.063L2049.53 438.271L2056.61 431.2ZM2077.41 434.4H2087.41V424.4H2077.41V434.4ZM2077.41 464V474H2087.41V464H2077.41ZM1985.81 464H1975.81V474H1985.81V464ZM1985.81 444.4H1995.81V424.4H1985.81V444.4ZM1995.81 444.4C2001.92 444.4 2009.06 443.284 2014.08 438.271L1999.93 424.129C2000.37 423.697 2000.55 423.788 1999.86 423.985C1999.15 424.188 1997.86 424.4 1995.81 424.4V444.4ZM2014.08 438.271C2019.18 433.164 2020.61 426.116 2020.61 419.6H2000.61C2000.61 423.75 1999.63 424.436 1999.93 424.129L2014.08 438.271ZM2020.61 419.6V316.4H2000.61V419.6H2020.61ZM2020.61 316.4C2020.61 310.231 2019.35 303.591 2014.88 298.556L1999.93 311.844C1999.81 311.712 1999.98 311.826 2000.19 312.547C2000.4 313.297 2000.61 314.53 2000.61 316.4H2020.61ZM2014.88 298.556C2009.98 293.05 2002.9 291.6 1996.61 291.6V311.6C1998.4 311.6 1999.44 311.819 1999.94 311.987C2000.39 312.134 2000.22 312.173 1999.93 311.844L2014.88 298.556ZM1996.61 291.6H1988.21V311.6H1996.61V291.6ZM1998.21 301.6V272H1978.21V301.6H1998.21ZM1988.21 282H2043.41V262H1988.21V282ZM2033.71 274.467L2039.31 296.467L2058.7 291.533L2053.1 269.533L2033.71 274.467ZM2057.41 299.421C2061.73 292.725 2066.93 288.48 2073.02 286.126L2065.8 267.474C2055.34 271.52 2046.95 278.741 2040.6 288.579L2057.41 299.421ZM2072.92 286.163C2080.08 283.477 2088.84 282 2099.41 282V262C2087.04 262 2075.8 263.723 2065.89 267.437L2072.92 286.163ZM2099.41 282H2117.81V262H2099.41V282ZM2107.81 272V301.6H2127.81V272H2107.81ZM2117.81 291.6H2095.41V311.6H2117.81V291.6ZM2095.41 291.6C2079.07 291.6 2064.84 295.27 2055.66 305.217L2070.35 318.783C2073.97 314.863 2081.34 311.6 2095.41 311.6V291.6ZM2055.79 305.075C2046.86 314.383 2043.41 327.817 2043.41 343.2H2063.41C2063.41 330.316 2066.35 322.951 2070.22 318.925L2055.79 305.075ZM2043.41 343.2V419.6H2063.41V343.2H2043.41ZM2043.41 419.6C2043.41 425.875 2044.59 432.735 2049.13 437.844L2064.08 424.556C2064.25 424.75 2064.07 424.657 2063.85 423.841C2063.61 423.004 2063.41 421.644 2063.41 419.6H2043.41ZM2049.53 438.271C2054.47 443.211 2061.38 444.4 2067.41 444.4V424.4C2065.52 424.4 2064.37 424.196 2063.75 424.012C2063.16 423.838 2063.31 423.763 2063.68 424.129L2049.53 438.271ZM2067.41 444.4H2077.41V424.4H2067.41V444.4ZM2067.41 434.4V464H2087.41V434.4H2067.41ZM2077.41 454H1985.81V474H2077.41V454ZM1995.81 464V434.4H1975.81V464H1995.81Z" fill="black" mask="url(#path-1-outside-1_15_2)"/>
</svg>
